<svg xmlns="http://www.w3.org/2000/svg" viewBox="0 0 1199.1000000000001 1295" width="1199.1000000000001" height="1295" style="--bg:#1a1b26;--fg:#a9b1d6;--line:#3d59a1;--accent:#7aa2f7;--muted:#565f89;background:var(--bg)">
<style>
  @import url('https://fonts.googleapis.com/css2?family=Inter:wght@400;500;600;700&amp;display=swap');
  text { font-family: 'Inter', system-ui, sans-serif; }
  svg {
    /* Derived from --bg and --fg (overridable via --line, --accent, etc.) */
    --_text:          var(--fg);
    --_text-sec:      var(--muted, color-mix(in srgb, var(--fg) 60%, var(--bg)));
    --_text-muted:    var(--muted, color-mix(in srgb, var(--fg) 40%, var(--bg)));
    --_text-faint:    color-mix(in srgb, var(--fg) 25%, var(--bg));
    --_line:          var(--line, color-mix(in srgb, var(--fg) 30%, var(--bg)));
    --_arrow:         var(--accent, color-mix(in srgb, var(--fg) 50%, var(--bg)));
    --_node-fill:     var(--surface, color-mix(in srgb, var(--fg) 3%, var(--bg)));
    --_node-stroke:   var(--border, color-mix(in srgb, var(--fg) 20%, var(--bg)));
    --_group-fill:    var(--bg);
    --_group-hdr:     color-mix(in srgb, var(--fg) 5%, var(--bg));
    --_inner-stroke:  color-mix(in srgb, var(--fg) 12%, var(--bg));
    --_key-badge:     color-mix(in srgb, var(--fg) 10%, var(--bg));
  }
</style>
<defs>
  <marker id="arrowhead" markerWidth="8" markerHeight="4.8" refX="8" refY="2.4" orient="auto">
    <polygon points="0 0, 8 2.4, 0 4.8" fill="var(--_arrow)" />
  </marker>
  <marker id="arrowhead-start" markerWidth="8" markerHeight="4.8" refX="0" refY="2.4" orient="auto-start-reverse">
    <polygon points="8 0, 0 2.4, 8 4.8" fill="var(--_arrow)" />
  </marker>
</defs>
<rect x="286.07500000000005" y="40" width="787.4000000000001" height="123" rx="0" ry="0" fill="var(--_group-fill)" stroke="var(--_node-stroke)" stroke-width="1" />
<rect x="286.07500000000005" y="40" width="787.4000000000001" height="28" rx="0" ry="0" fill="var(--_group-hdr)" stroke="var(--_node-stroke)" stroke-width="1" />
<text x="298.07500000000005" y="54" dy="0.35em" font-size="12" font-weight="600" fill="var(--_text-sec)">Farms - raw telemetry never leaves the site</text>
<rect x="352" y="207" width="635.55" height="112" rx="0" ry="0" fill="var(--_group-fill)" stroke="var(--_node-stroke)" stroke-width="1" />
<rect x="352" y="207" width="635.55" height="28" rx="0" ry="0" fill="var(--_group-hdr)" stroke="var(--_node-stroke)" stroke-width="1" />
<text x="364" y="221" dy="0.35em" font-size="12" font-weight="600" fill="var(--_text-sec)">Flower ClientApp - one per farm</text>
<rect x="461.4750000000001" y="519" width="382.9125" height="268" rx="0" ry="0" fill="var(--_group-fill)" stroke="var(--_node-stroke)" stroke-width="1" />
<rect x="461.4750000000001" y="519" width="382.9125" height="28" rx="0" ry="0" fill="var(--_group-hdr)" stroke="var(--_node-stroke)" stroke-width="1" />
<text x="473.4750000000001" y="533" dy="0.35em" font-size="12" font-weight="600" fill="var(--_text-sec)">Regional Authority</text>
<rect x="39.99999999999994" y="831" width="795.7500000000001" height="268" rx="0" ry="0" fill="var(--_group-fill)" stroke="var(--_node-stroke)" stroke-width="1" />
<rect x="39.99999999999994" y="831" width="795.7500000000001" height="28" rx="0" ry="0" fill="var(--_group-hdr)" stroke="var(--_node-stroke)" stroke-width="1" />
<text x="51.99999999999994" y="845" dy="0.35em" font-size="12" font-weight="600" fill="var(--_text-sec)">GrwFlwr AgentApp</text>
<rect x="855.7500000000002" y="831" width="283.35" height="424" rx="0" ry="0" fill="var(--_group-fill)" stroke="var(--_node-stroke)" stroke-width="1" />
<rect x="855.7500000000002" y="831" width="283.35" height="28" rx="0" ry="0" fill="var(--_group-hdr)" stroke="var(--_node-stroke)" stroke-width="1" />
<text x="867.7500000000002" y="845" dy="0.35em" font-size="12" font-weight="600" fill="var(--_text-sec)">Farmer</text>
<polyline points="392,143 392,281 531.5000000000001,281" fill="none" stroke="var(--_line)" stroke-width="0.75" marker-end="url(#arrowhead)" />
<polyline points="583.85,143 583.85,281 531.5000000000001,281" fill="none" stroke="var(--_line)" stroke-width="0.75" marker-end="url(#arrowhead)" />
<polyline points="775.7,143 775.7,281 828.0500000000001,281" fill="none" stroke="var(--_line)" stroke-width="0.75" marker-end="url(#arrowhead)" />
<polyline points="967.5500000000001,143 967.5500000000001,281 828.0500000000001,281" fill="none" stroke="var(--_line)" stroke-width="0.75" marker-end="url(#arrowhead)" />
<polyline points="679.7750000000001,299 679.7750000000001,319 601.7875,319 601.7875,419" fill="none" stroke="var(--_line)" stroke-width="0.75" marker-end="url(#arrowhead)" />
<polyline points="601.7875,455 601.7875,575" fill="none" stroke="var(--_line)" stroke-width="0.75" marker-end="url(#arrowhead)" />
<polyline points="601.7875,611 601.7875,749 548.5250000000001,749" fill="none" stroke="var(--_line)" stroke-width="0.75" marker-end="url(#arrowhead)" />
<polyline points="679.7750000000001,731 679.7750000000001,711 757.7625,711 757.7625,281 828.0500000000001,281" fill="none" stroke="var(--_line)" stroke-width="0.75" marker-end="url(#arrowhead)" />
<polyline points="679.7750000000001,767 679.7750000000001,887" fill="none" stroke="var(--_line)" stroke-width="0.75" marker-end="url(#arrowhead)" />
<polyline points="993.8499999999999,923 993.8499999999999,1061 683.8625000000001,1061" fill="none" stroke="var(--_line)" stroke-width="0.75" marker-end="url(#arrowhead)" />
<polyline points="174.52499999999998,923 174.52499999999998,1061 415.9125,1061" fill="none" stroke="var(--_line)" stroke-width="0.75" marker-end="url(#arrowhead)" />
<polyline points="420,923 420,1061 415.9125,1061" fill="none" stroke="var(--_line)" stroke-width="0.75" marker-end="url(#arrowhead)" />
<polyline points="679.7750000000001,923 679.7750000000001,1061 683.8625000000001,1061" fill="none" stroke="var(--_line)" stroke-width="0.75" marker-end="url(#arrowhead)" />
<polyline points="549.8875,1079 549.8875,1119 997.4250000000002,1119 997.4250000000002,1199" fill="none" stroke="var(--_line)" stroke-width="0.75" marker-end="url(#arrowhead)" />
<rect x="467.8125" y="419" width="267.95000000000005" height="36" rx="0" ry="0" fill="#3f1d2e" stroke="#fb7185" stroke-width="0.75" />
<line x1="475.8125" y1="419" x2="475.8125" y2="455" stroke="#fb7185" stroke-width="0.75" />
<line x1="727.7625" y1="419" x2="727.7625" y2="455" stroke="#fb7185" stroke-width="0.75" />
<rect x="308.075" y="103" width="167.85000000000002" height="33" fill="#16362a" stroke="none" />
<line x1="308.075" y1="103" x2="308.075" y2="136" stroke="#4ade80" stroke-width="0.75" />
<line x1="475.925" y1="103" x2="475.925" y2="136" stroke="#4ade80" stroke-width="0.75" />
<ellipse cx="392" cy="136" rx="83.92500000000001" ry="7" fill="#16362a" stroke="#4ade80" stroke-width="0.75" />
<ellipse cx="392" cy="103" rx="83.92500000000001" ry="7" fill="#16362a" stroke="#4ade80" stroke-width="0.75" />
<rect x="499.925" y="103" width="167.85000000000002" height="33" fill="#16362a" stroke="none" />
<line x1="499.925" y1="103" x2="499.925" y2="136" stroke="#4ade80" stroke-width="0.75" />
<line x1="667.7750000000001" y1="103" x2="667.7750000000001" y2="136" stroke="#4ade80" stroke-width="0.75" />
<ellipse cx="583.85" cy="136" rx="83.92500000000001" ry="7" fill="#16362a" stroke="#4ade80" stroke-width="0.75" />
<ellipse cx="583.85" cy="103" rx="83.92500000000001" ry="7" fill="#16362a" stroke="#4ade80" stroke-width="0.75" />
<rect x="691.7750000000001" y="103" width="167.85000000000002" height="33" fill="#16362a" stroke="none" />
<line x1="691.7750000000001" y1="103" x2="691.7750000000001" y2="136" stroke="#4ade80" stroke-width="0.75" />
<line x1="859.6250000000001" y1="103" x2="859.6250000000001" y2="136" stroke="#4ade80" stroke-width="0.75" />
<ellipse cx="775.7" cy="136" rx="83.92500000000001" ry="7" fill="#16362a" stroke="#4ade80" stroke-width="0.75" />
<ellipse cx="775.7" cy="103" rx="83.92500000000001" ry="7" fill="#16362a" stroke="#4ade80" stroke-width="0.75" />
<rect x="883.625" y="103" width="167.85000000000002" height="33" fill="#16362a" stroke="none" />
<line x1="883.625" y1="103" x2="883.625" y2="136" stroke="#4ade80" stroke-width="0.75" />
<line x1="1051.475" y1="103" x2="1051.475" y2="136" stroke="#4ade80" stroke-width="0.75" />
<ellipse cx="967.55" cy="136" rx="83.92500000000001" ry="7" fill="#16362a" stroke="#4ade80" stroke-width="0.75" />
<ellipse cx="967.55" cy="103" rx="83.92500000000001" ry="7" fill="#16362a" stroke="#4ade80" stroke-width="0.75" />
<rect x="531.5000000000001" y="263" width="296.55" height="36" rx="0" ry="0" fill="#16362a" stroke="#4ade80" stroke-width="0.75" />
<rect x="496.4125" y="575" width="210.75000000000003" height="36" rx="0" ry="0" fill="#1b2a52" stroke="#60a5fa" stroke-width="0.75" />
<polygon points="557.5250000000001,731 802.0250000000001,731 811.0250000000001,749 802.0250000000001,767 557.5250000000001,767 548.5250000000001,749" fill="#1b2a52" stroke="#60a5fa" stroke-width="0.75" />
<rect x="61.99999999999997" y="887" width="225.05" height="36" rx="0" ry="0" fill="#3d2a14" stroke="#fbbf24" stroke-width="0.75" />
<rect x="311.05" y="887" width="217.9" height="36" rx="0" ry="0" fill="#3d2a14" stroke="#fbbf24" stroke-width="0.75" />
<rect x="552.95" y="887" width="253.65" height="36" rx="0" ry="0" fill="#3d2a14" stroke="#fbbf24" stroke-width="0.75" />
<rect x="415.9125" y="1043" width="267.95000000000005" height="36" rx="0" ry="0" fill="#3d2a14" stroke="#fbbf24" stroke-width="0.75" />
<rect x="899.1999999999999" y="887" width="189.3" height="36" rx="18" ry="18" fill="#2f1c3f" stroke="#c084fc" stroke-width="0.75" />
<rect x="877.7500000000002" y="1199" width="239.35000000000002" height="36" rx="18" ry="18" fill="#2f1c3f" stroke="#c084fc" stroke-width="0.75" />
<text x="601.7875" y="437" text-anchor="middle" dy="0.35em" font-size="13" font-weight="500" fill="#ffe4e6">Only model weights cross the wire</text>
<text x="392" y="119.5" text-anchor="middle" dy="0.35em" font-size="13" font-weight="500" fill="#d1fae5">Farm 1 soil + usage</text>
<text x="583.85" y="119.5" text-anchor="middle" dy="0.35em" font-size="13" font-weight="500" fill="#d1fae5">Farm 2 soil + usage</text>
<text x="775.7" y="119.5" text-anchor="middle" dy="0.35em" font-size="13" font-weight="500" fill="#d1fae5">Farm 3 soil + usage</text>
<text x="967.55" y="119.5" text-anchor="middle" dy="0.35em" font-size="13" font-weight="500" fill="#d1fae5">Farm 4 soil + usage</text>
<text x="679.7750000000001" y="281" text-anchor="middle" dy="0.35em" font-size="13" font-weight="500" fill="#d1fae5">Train irrigation-safety model locally</text>
<text x="601.7875" y="593" text-anchor="middle" dy="0.35em" font-size="13" font-weight="500" fill="#dbeafe">Flower ServerApp - FedAvg</text>
<text x="679.7750000000001" y="749" text-anchor="middle" dy="0.35em" font-size="13" font-weight="500" fill="#dbeafe">Global irrigation-safety model</text>
<text x="174.52499999999998" y="905" text-anchor="middle" dy="0.35em" font-size="13" font-weight="500" fill="#fef3c7">Tool: live weather forecast</text>
<text x="420" y="905" text-anchor="middle" dy="0.35em" font-size="13" font-weight="500" fill="#fef3c7">Tool: this farm&#39;s readings</text>
<text x="679.7750000000001" y="905" text-anchor="middle" dy="0.35em" font-size="13" font-weight="500" fill="#fef3c7">Tool: predict irrigation safety</text>
<text x="549.8875" y="1061" text-anchor="middle" dy="0.35em" font-size="13" font-weight="500" fill="#fef3c7">Flower Agent - LLM reasoning loop</text>
<text x="993.8499999999999" y="905" text-anchor="middle" dy="0.35em" font-size="13" font-weight="500" fill="#f3e8ff">Can I irrigate safely?</text>
<text x="997.4250000000002" y="1217" text-anchor="middle" dy="0.35em" font-size="13" font-weight="500" fill="#f3e8ff">Recommendation + water budget</text>
</svg>